<svg width="80" height="77" viewBox="0 0 80 77" fill="none" xmlns="http://www.w3.org/2000/svg">
<path d="M20 76.6667C17.2222 76.6667 14.8611 75.6944 12.9167 73.75C10.9722 71.8056 10 69.4444 10 66.6667C10 63.8889 10.9722 61.5278 12.9167 59.5833C14.8611 57.6389 17.2222 56.6667 20 56.6667C20.7778 56.6667 21.5 56.75 22.1667 56.9167C22.8333 57.0833 23.4722 57.3056 24.0833 57.5833L28.8333 51.6667C27.2778 49.9444 26.1944 48 25.5833 45.8333C24.9722 43.6667 24.8333 41.5 25.1667 39.3333L18.4167 37.0833C17.4722 38.4722 16.2778 39.5833 14.8333 40.4167C13.3889 41.25 11.7778 41.6667 10 41.6667C7.22222 41.6667 4.86111 40.6944 2.91667 38.75C0.972222 36.8056 0 34.4444 0 31.6667C0 28.8889 0.972222 26.5278 2.91667 24.5833C4.86111 22.6389 7.22222 21.6667 10 21.6667C12.7778 21.6667 15.1389 22.6389 17.0833 24.5833C19.0278 26.5278 20 28.8889 20 31.6667C20 31.7778 20 31.8889 20 32C20 32.1111 20 32.2222 20 32.3333L26.75 34.6667C27.8611 32.6667 29.3472 30.9722 31.2083 29.5833C33.0694 28.1944 35.1667 27.3056 37.5 26.9167V19.6667C35.3333 19.0556 33.5417 17.875 32.125 16.125C30.7083 14.375 30 12.3333 30 10C30 7.22222 30.9722 4.86111 32.9167 2.91667C34.8611 0.972222 37.2222 0 40 0C42.7778 0 45.1389 0.972222 47.0833 2.91667C49.0278 4.86111 50 7.22222 50 10C50 12.3333 49.2778 14.375 47.8333 16.125C46.3889 17.875 44.6111 19.0556 42.5 19.6667V26.9167C44.8333 27.3056 46.9306 28.1944 48.7917 29.5833C50.6528 30.9722 52.1389 32.6667 53.25 34.6667L60 32.3333C60 32.2222 60 32.1111 60 32C60 31.8889 60 31.7778 60 31.6667C60 28.8889 60.9722 26.5278 62.9167 24.5833C64.8611 22.6389 67.2222 21.6667 70 21.6667C72.7778 21.6667 75.1389 22.6389 77.0833 24.5833C79.0278 26.5278 80 28.8889 80 31.6667C80 34.4444 79.0278 36.8056 77.0833 38.75C75.1389 40.6944 72.7778 41.6667 70 41.6667C68.2222 41.6667 66.5972 41.25 65.125 40.4167C63.6528 39.5833 62.4722 38.4722 61.5833 37.0833L54.8333 39.3333C55.1667 41.5 55.0278 43.6528 54.4167 45.7917C53.8056 47.9306 52.7222 49.8889 51.1667 51.6667L55.9167 57.5C56.5278 57.2222 57.1667 57.0139 57.8333 56.875C58.5 56.7361 59.2222 56.6667 60 56.6667C62.7778 56.6667 65.1389 57.6389 67.0833 59.5833C69.0278 61.5278 70 63.8889 70 66.6667C70 69.4444 69.0278 71.8056 67.0833 73.75C65.1389 75.6944 62.7778 76.6667 60 76.6667C57.2222 76.6667 54.8611 75.6944 52.9167 73.75C50.9722 71.8056 50 69.4444 50 66.6667C50 65.5556 50.1806 64.4861 50.5417 63.4583C50.9028 62.4306 51.3889 61.5 52 60.6667L47.25 54.75C44.9722 56.0278 42.5417 56.6667 39.9583 56.6667C37.375 56.6667 34.9444 56.0278 32.6667 54.75L28 60.6667C28.6111 61.5 29.0972 62.4306 29.4583 63.4583C29.8194 64.4861 30 65.5556 30 66.6667C30 69.4444 29.0278 71.8056 27.0833 73.75C25.1389 75.6944 22.7778 76.6667 20 76.6667V76.6667" fill="#0254EC"/>
</svg>
